G04*
G04 #@! TF.GenerationSoftware,Altium Limited,Altium Designer,20.0.13 (296)*
G04*
G04 Layer_Color=16711935*
%FSLAX25Y25*%
%MOIN*%
G70*
G01*
G75*
%ADD39O,0.04800X0.08000*%
%ADD40R,0.04800X0.08000*%
%ADD41O,0.06706X0.08674*%
%ADD42O,0.10642X0.05524*%
%ADD43R,0.10642X0.05524*%
%ADD59R,0.06506X0.05718*%
%ADD60R,0.05600X0.05600*%
%ADD61R,0.05718X0.06506*%
%ADD62R,0.05403X0.03041*%
%ADD63R,0.05600X0.05600*%
%ADD64C,0.02769*%
%ADD65C,0.02800*%
D39*
X201000Y83000D02*
D03*
X191000D02*
D03*
X181000D02*
D03*
X171000D02*
D03*
X161000D02*
D03*
X151000D02*
D03*
X141000D02*
D03*
X131000D02*
D03*
X121000D02*
D03*
X111000D02*
D03*
X101000D02*
D03*
X81000D02*
D03*
X91000D02*
D03*
X71000D02*
D03*
X61000D02*
D03*
X51000D02*
D03*
X41000D02*
D03*
X30685D02*
D03*
X20843D02*
D03*
X22343Y8000D02*
D03*
X32185D02*
D03*
X42500D02*
D03*
X52500D02*
D03*
X62500D02*
D03*
X72500D02*
D03*
X92500D02*
D03*
X82500D02*
D03*
X102500D02*
D03*
X112500D02*
D03*
X122500D02*
D03*
X132500D02*
D03*
X142500D02*
D03*
X152500D02*
D03*
X162500D02*
D03*
X172500D02*
D03*
X182500D02*
D03*
X192500D02*
D03*
X202500D02*
D03*
D40*
X11000Y83000D02*
D03*
X12500Y8000D02*
D03*
D41*
X160138Y33465D02*
D03*
X170138D02*
D03*
Y23465D02*
D03*
X160138D02*
D03*
X150138Y33465D02*
D03*
Y23465D02*
D03*
D42*
X9055Y28130D02*
D03*
Y38130D02*
D03*
Y48130D02*
D03*
D43*
Y58130D02*
D03*
D59*
X23229Y55315D02*
D03*
X23229Y47835D02*
D03*
X32973Y55315D02*
D03*
X32973Y47835D02*
D03*
X81000Y18560D02*
D03*
X81000Y26040D02*
D03*
X129429Y63997D02*
D03*
X129429Y71478D02*
D03*
X175000Y54440D02*
D03*
X175000Y46960D02*
D03*
X129844Y19056D02*
D03*
X129844Y26537D02*
D03*
D60*
X41732Y71358D02*
D03*
Y63484D02*
D03*
X64665Y71555D02*
D03*
Y63681D02*
D03*
X139272Y63386D02*
D03*
Y71260D02*
D03*
X147343Y63288D02*
D03*
Y71162D02*
D03*
X155600Y62963D02*
D03*
Y70837D02*
D03*
X182776Y63583D02*
D03*
Y71457D02*
D03*
X104600Y26500D02*
D03*
Y18626D02*
D03*
X112900Y26500D02*
D03*
Y18626D02*
D03*
X139400Y26537D02*
D03*
Y18663D02*
D03*
X121200Y26500D02*
D03*
Y18626D02*
D03*
D61*
X56989Y58070D02*
D03*
X49508Y58071D02*
D03*
D62*
X163642Y70975D02*
D03*
X173957Y63494D02*
D03*
Y70975D02*
D03*
Y67235D02*
D03*
X163642Y63475D02*
D03*
D63*
X166637Y54100D02*
D03*
X158763D02*
D03*
D64*
X136600Y32100D02*
D03*
X113681Y43110D02*
D03*
X78100Y55200D02*
D03*
X77500Y58800D02*
D03*
X78900Y62900D02*
D03*
X107868Y48026D02*
D03*
X95516Y67500D02*
D03*
X34500Y67000D02*
D03*
X96900Y48400D02*
D03*
X45600Y49100D02*
D03*
X34300Y40100D02*
D03*
X41700Y50200D02*
D03*
X197587Y37403D02*
D03*
X182000Y44500D02*
D03*
X155500Y22700D02*
D03*
X164800Y22000D02*
D03*
X57100Y6600D02*
D03*
X15700Y71000D02*
D03*
X124000Y67600D02*
D03*
X87000Y44100D02*
D03*
X89300Y25000D02*
D03*
X78248Y36417D02*
D03*
X140200Y57000D02*
D03*
X124000Y31200D02*
D03*
X138484Y53642D02*
D03*
X132703Y57210D02*
D03*
X112000Y48400D02*
D03*
X124902Y52658D02*
D03*
X127264Y46850D02*
D03*
X142028Y49016D02*
D03*
X121023Y55807D02*
D03*
X104626Y47736D02*
D03*
D65*
X205000Y75000D02*
D03*
Y35000D02*
D03*
Y15000D02*
D03*
X207500Y10000D02*
D03*
X200000Y75000D02*
D03*
Y65000D02*
D03*
X202500Y50000D02*
D03*
X200000Y45000D02*
D03*
Y15000D02*
D03*
X195000Y75000D02*
D03*
Y65000D02*
D03*
X197500Y50000D02*
D03*
X195000Y45000D02*
D03*
X197500Y40000D02*
D03*
X195000Y15000D02*
D03*
X197500Y10000D02*
D03*
X190000Y75000D02*
D03*
Y65000D02*
D03*
Y15000D02*
D03*
X185000Y55000D02*
D03*
Y45000D02*
D03*
Y35000D02*
D03*
Y15000D02*
D03*
X187500Y10000D02*
D03*
X180000Y55000D02*
D03*
X182500Y50000D02*
D03*
X180000Y35000D02*
D03*
X182500Y30000D02*
D03*
Y20000D02*
D03*
X175000Y35000D02*
D03*
X177500Y30000D02*
D03*
Y20000D02*
D03*
Y10000D02*
D03*
X170000Y45000D02*
D03*
Y15000D02*
D03*
X167500Y60000D02*
D03*
X165000Y45000D02*
D03*
Y35000D02*
D03*
X167500Y10000D02*
D03*
X162500Y60000D02*
D03*
X160000Y45000D02*
D03*
X157500Y50000D02*
D03*
X155000Y45000D02*
D03*
X152500Y50000D02*
D03*
X150000Y45000D02*
D03*
X145000Y35000D02*
D03*
X147500Y10000D02*
D03*
X137500Y50000D02*
D03*
Y40000D02*
D03*
Y10000D02*
D03*
X132500Y40000D02*
D03*
X117500Y10000D02*
D03*
X105000Y85000D02*
D03*
X107500Y10000D02*
D03*
X100000Y75000D02*
D03*
X95000Y85000D02*
D03*
X97500Y80000D02*
D03*
X95000Y75000D02*
D03*
Y45000D02*
D03*
X97500Y40000D02*
D03*
X95000Y35000D02*
D03*
X97500Y20000D02*
D03*
X95000Y15000D02*
D03*
X97500Y10000D02*
D03*
X92500Y40000D02*
D03*
X85000Y85000D02*
D03*
X87500Y80000D02*
D03*
Y10000D02*
D03*
X75000Y85000D02*
D03*
Y45000D02*
D03*
X77500Y40000D02*
D03*
X75000Y25000D02*
D03*
X70000Y65000D02*
D03*
X65000Y85000D02*
D03*
X67500Y80000D02*
D03*
Y50000D02*
D03*
X65000Y35000D02*
D03*
Y25000D02*
D03*
X67500Y10000D02*
D03*
X55000Y85000D02*
D03*
X57500Y80000D02*
D03*
Y40000D02*
D03*
Y30000D02*
D03*
X55000Y25000D02*
D03*
X57500Y10000D02*
D03*
X45000Y85000D02*
D03*
X47500Y80000D02*
D03*
X45000Y15000D02*
D03*
X40000Y55000D02*
D03*
X35000Y85000D02*
D03*
X37500Y80000D02*
D03*
Y60000D02*
D03*
Y50000D02*
D03*
Y30000D02*
D03*
X35000Y25000D02*
D03*
X37500Y10000D02*
D03*
X25000Y85000D02*
D03*
Y75000D02*
D03*
Y65000D02*
D03*
Y25000D02*
D03*
Y15000D02*
D03*
X27500Y10000D02*
D03*
X22500Y70000D02*
D03*
X20000Y65000D02*
D03*
X22500Y60000D02*
D03*
Y30000D02*
D03*
X20000Y25000D02*
D03*
X22500Y20000D02*
D03*
X20000Y15000D02*
D03*
X15000Y65000D02*
D03*
X17500Y60000D02*
D03*
Y50000D02*
D03*
X15000Y35000D02*
D03*
X17500Y30000D02*
D03*
X15000Y25000D02*
D03*
X17500Y20000D02*
D03*
X15000Y15000D02*
D03*
X17500Y10000D02*
D03*
X10000Y75000D02*
D03*
Y65000D02*
D03*
X12500Y20000D02*
D03*
X10000Y15000D02*
D03*
X5000Y85000D02*
D03*
Y75000D02*
D03*
Y65000D02*
D03*
X7500Y20000D02*
D03*
X5000Y15000D02*
D03*
X7500Y10000D02*
D03*
X5000Y5000D02*
D03*
M02*
