G04*
G04 #@! TF.GenerationSoftware,Altium Limited,Altium Designer,20.0.13 (296)*
G04*
G04 Layer_Color=32896*
%FSLAX25Y25*%
%MOIN*%
G70*
G01*
G75*
%ADD10C,0.00787*%
%ADD12C,0.00500*%
%ADD14C,0.04000*%
%ADD17C,0.00600*%
D10*
X4701Y88800D02*
X205900Y88800D01*
X4701Y77300D02*
Y88800D01*
X205900Y77300D02*
Y88800D01*
X4701Y77300D02*
X205900Y77300D01*
X6201Y2300D02*
X207400D01*
Y13800D01*
X6201Y2300D02*
X6201Y13800D01*
X207400Y13800D01*
D12*
X19429Y52875D02*
Y58775D01*
X27029Y52875D02*
Y58775D01*
X19429D02*
X27029D01*
Y44375D02*
Y50175D01*
X19429Y44375D02*
X27029D01*
X19429D02*
Y50375D01*
X29173Y52875D02*
Y58775D01*
X36773Y52875D02*
Y58775D01*
X29173D02*
X36773D01*
Y44375D02*
Y50175D01*
X29173Y44375D02*
X36773D01*
X29173D02*
Y50375D01*
X38332Y68458D02*
Y74758D01*
Y60158D02*
Y66358D01*
Y60084D02*
X45132D01*
Y60158D02*
Y66258D01*
Y68558D02*
Y74758D01*
X38332Y74758D02*
X45132Y74758D01*
X54548Y61870D02*
X60448D01*
X54548Y54271D02*
X60448D01*
Y61870D01*
X46048Y54271D02*
X51848D01*
X46048D02*
Y61871D01*
X52048D01*
X61265Y68655D02*
Y74955D01*
Y60355D02*
Y66555D01*
Y60281D02*
X68065D01*
Y60355D02*
Y66455D01*
Y68755D02*
Y74955D01*
X61265Y74955D02*
X68065Y74955D01*
X84800Y15100D02*
Y21000D01*
X77200Y15100D02*
Y21000D01*
Y15100D02*
X84800Y15100D01*
X77200Y23700D02*
X77200Y29500D01*
X84800D01*
Y23500D02*
Y29500D01*
X160384Y60575D02*
Y73875D01*
X173173D01*
X177215Y60575D02*
Y73875D01*
X160384Y60575D02*
X177215D01*
X173844Y73204D02*
X174514Y73875D01*
X177215D01*
X173173D02*
X173844Y73204D01*
X133229Y60537D02*
Y66438D01*
X125629Y60537D02*
Y66438D01*
Y60537D02*
X133229D01*
X125629Y69138D02*
Y74937D01*
X133229D01*
Y68937D02*
Y74937D01*
X142672Y59986D02*
Y66286D01*
Y68386D02*
Y74586D01*
X135872Y74660D02*
X142672D01*
X135872Y68486D02*
Y74586D01*
Y59986D02*
Y66186D01*
Y59986D02*
X142672Y59986D01*
X150743Y59888D02*
Y66188D01*
Y68288D02*
Y74488D01*
X143943Y74562D02*
X150743D01*
X143943Y68388D02*
Y74488D01*
Y59888D02*
Y66088D01*
Y59888D02*
X150743Y59888D01*
X159000Y59563D02*
Y65863D01*
Y67963D02*
Y74163D01*
X152200Y74237D02*
X159000D01*
X152200Y68063D02*
Y74163D01*
Y59563D02*
Y65763D01*
Y59563D02*
X159000Y59563D01*
X163737Y57500D02*
X170037D01*
X155437D02*
X161637D01*
X155363Y50700D02*
Y57500D01*
X155437Y50700D02*
X161537D01*
X163837D02*
X170037D01*
X170037Y57500D01*
X171200Y52000D02*
Y57900D01*
X178800Y52000D02*
Y57900D01*
X171200D02*
X178800D01*
Y43500D02*
Y49300D01*
X171200Y43500D02*
X178800D01*
X171200D02*
Y49500D01*
X186176Y60183D02*
Y66483D01*
Y68583D02*
Y74783D01*
X179376Y74857D02*
X186176D01*
X179376Y68683D02*
Y74783D01*
Y60183D02*
Y66383D01*
Y60183D02*
X186176Y60183D01*
X126044Y15596D02*
Y21596D01*
Y15596D02*
X133644D01*
Y21396D01*
X126044Y29996D02*
X133644D01*
Y24096D02*
Y29996D01*
X126044Y24096D02*
Y29996D01*
X101200Y15226D02*
X108000Y15226D01*
X101200Y15226D02*
Y21426D01*
Y23726D02*
Y29826D01*
Y29900D02*
X108000D01*
Y23626D02*
Y29826D01*
Y15226D02*
Y21526D01*
X109500Y15226D02*
X116300Y15226D01*
X109500Y15226D02*
Y21426D01*
Y23726D02*
Y29826D01*
Y29900D02*
X116300D01*
Y23626D02*
Y29826D01*
Y15226D02*
Y21526D01*
X136000Y15263D02*
X142800Y15263D01*
X136000Y15263D02*
Y21463D01*
Y23763D02*
Y29863D01*
Y29937D02*
X142800D01*
Y23663D02*
Y29863D01*
Y15263D02*
Y21563D01*
X117800Y15226D02*
X124600Y15226D01*
X117800Y15226D02*
Y21426D01*
Y23726D02*
Y29826D01*
Y29900D02*
X124600D01*
Y23626D02*
Y29826D01*
Y15226D02*
Y21526D01*
D14*
X10742Y74700D02*
D03*
X12242Y-300D02*
D03*
D17*
X25699Y39101D02*
Y42099D01*
X24200D01*
X23700Y41600D01*
Y40600D01*
X24200Y40100D01*
X25699D01*
X24700D02*
X23700Y39101D01*
X22700Y41600D02*
X22200Y42099D01*
X21201D01*
X20701Y41600D01*
Y41100D01*
X21201Y40600D01*
X21700D01*
X21201D01*
X20701Y40100D01*
Y39600D01*
X21201Y39101D01*
X22200D01*
X22700Y39600D01*
X35399Y39401D02*
Y42399D01*
X33900D01*
X33400Y41900D01*
Y40900D01*
X33900Y40400D01*
X35399D01*
X34400D02*
X33400Y39401D01*
X30901D02*
Y42399D01*
X32400Y40900D01*
X30401D01*
X42300Y57900D02*
X42800Y58399D01*
X43799D01*
X44299Y57900D01*
Y55900D01*
X43799Y55401D01*
X42800D01*
X42300Y55900D01*
X39301Y58399D02*
X40301Y57900D01*
X41300Y56900D01*
Y55900D01*
X40800Y55401D01*
X39801D01*
X39301Y55900D01*
Y56400D01*
X39801Y56900D01*
X41300D01*
X55399Y49400D02*
Y52399D01*
X53900D01*
X53400Y51900D01*
Y50900D01*
X53900Y50400D01*
X55399D01*
X54400D02*
X53400Y49400D01*
X52400D02*
X51401D01*
X51901D01*
Y52399D01*
X52400Y51900D01*
X65400Y58200D02*
X65900Y58700D01*
X66899D01*
X67399Y58200D01*
Y56200D01*
X66899Y55700D01*
X65900D01*
X65400Y56200D01*
X62401Y58700D02*
X64400D01*
Y57200D01*
X63401Y57700D01*
X62901D01*
X62401Y57200D01*
Y56200D01*
X62901Y55700D01*
X63900D01*
X64400Y56200D01*
X83399Y32100D02*
Y35100D01*
X81900D01*
X81400Y34600D01*
Y33600D01*
X81900Y33100D01*
X83399D01*
X82399D02*
X81400Y32100D01*
X78401Y35100D02*
X80400D01*
Y33600D01*
X79400Y34100D01*
X78901D01*
X78401Y33600D01*
Y32600D01*
X78901Y32100D01*
X79900D01*
X80400Y32600D01*
X131699Y54300D02*
Y57300D01*
X130200D01*
X129700Y56800D01*
Y55800D01*
X130200Y55300D01*
X131699D01*
X130700D02*
X129700Y54300D01*
X126701D02*
X128700D01*
X126701Y56300D01*
Y56800D01*
X127201Y57300D01*
X128200D01*
X128700Y56800D01*
X138400Y56500D02*
X138900Y56999D01*
X139899D01*
X140399Y56500D01*
Y54500D01*
X139899Y54001D01*
X138900D01*
X138400Y54500D01*
X137400Y56500D02*
X136900Y56999D01*
X135901D01*
X135401Y56500D01*
Y56000D01*
X135901Y55500D01*
X136400D01*
X135901D01*
X135401Y55000D01*
Y54500D01*
X135901Y54001D01*
X136900D01*
X137400Y54500D01*
X145100Y56500D02*
X145600Y56999D01*
X146599D01*
X147099Y56500D01*
Y54500D01*
X146599Y54001D01*
X145600D01*
X145100Y54500D01*
X142101Y54001D02*
X144100D01*
X142101Y56000D01*
Y56500D01*
X142601Y56999D01*
X143600D01*
X144100Y56500D01*
X151700D02*
X152200Y56999D01*
X153199D01*
X153699Y56500D01*
Y54500D01*
X153199Y54001D01*
X152200D01*
X151700Y54500D01*
X149201Y54001D02*
Y56999D01*
X150700Y55500D01*
X148701D01*
X162800Y48400D02*
X163300Y48899D01*
X164299D01*
X164799Y48400D01*
Y46400D01*
X164299Y45900D01*
X163300D01*
X162800Y46400D01*
X161800Y48899D02*
X159801D01*
Y48400D01*
X161800Y46400D01*
Y45900D01*
X178499Y38800D02*
Y41800D01*
X177000D01*
X176500Y41300D01*
Y40300D01*
X177000Y39800D01*
X178499D01*
X177499D02*
X176500Y38800D01*
X175500Y41800D02*
X173501D01*
Y41300D01*
X175500Y39300D01*
Y38800D01*
X190100Y62800D02*
X190600Y63300D01*
X191600D01*
X192099Y62800D01*
Y60800D01*
X191600Y60300D01*
X190600D01*
X190100Y60800D01*
X189100Y60300D02*
X188101D01*
X188601D01*
Y63300D01*
X189100Y62800D01*
X204100Y71100D02*
X205100D01*
X204600D01*
Y68600D01*
X205100Y68101D01*
X205599D01*
X206099Y68600D01*
X201101Y68101D02*
X203100D01*
X201101Y70100D01*
Y70600D01*
X201601Y71100D01*
X202600D01*
X203100Y70600D01*
X133300Y32800D02*
Y35799D01*
X131800D01*
X131301Y35299D01*
Y34299D01*
X131800Y33800D01*
X133300D01*
X132300D02*
X131301Y32800D01*
X128302Y35799D02*
X129301Y35299D01*
X130301Y34299D01*
Y33300D01*
X129801Y32800D01*
X128801D01*
X128302Y33300D01*
Y33800D01*
X128801Y34299D01*
X130301D01*
X205201Y19799D02*
X206200D01*
X205700D01*
Y17300D01*
X206200Y16800D01*
X206700D01*
X207200Y17300D01*
X204201Y19299D02*
X203701Y19799D01*
X202701D01*
X202202Y19299D01*
Y18799D01*
X202701Y18300D01*
X203201D01*
X202701D01*
X202202Y17800D01*
Y17300D01*
X202701Y16800D01*
X203701D01*
X204201Y17300D01*
X113901Y35299D02*
X114400Y35799D01*
X115400D01*
X115900Y35299D01*
Y33300D01*
X115400Y32800D01*
X114400D01*
X113901Y33300D01*
X112901Y32800D02*
X111901D01*
X112401D01*
Y35799D01*
X112901Y35299D01*
X110402Y32800D02*
X109402D01*
X109902D01*
Y35799D01*
X110402Y35299D01*
X140501D02*
X141000Y35799D01*
X142000D01*
X142500Y35299D01*
Y33300D01*
X142000Y32800D01*
X141000D01*
X140501Y33300D01*
X139501Y32800D02*
X138501D01*
X139001D01*
Y35799D01*
X139501Y35299D01*
X137002D02*
X136502Y35799D01*
X135502D01*
X135002Y35299D01*
Y33300D01*
X135502Y32800D01*
X136502D01*
X137002Y33300D01*
Y35299D01*
X105601D02*
X106100Y35799D01*
X107100D01*
X107600Y35299D01*
Y33300D01*
X107100Y32800D01*
X106100D01*
X105601Y33300D01*
X104601D02*
X104101Y32800D01*
X103101D01*
X102602Y33300D01*
Y35299D01*
X103101Y35799D01*
X104101D01*
X104601Y35299D01*
Y34799D01*
X104101Y34299D01*
X102602D01*
X122201Y35299D02*
X122701Y35799D01*
X123700D01*
X124200Y35299D01*
Y33300D01*
X123700Y32800D01*
X122701D01*
X122201Y33300D01*
X121201Y35299D02*
X120701Y35799D01*
X119701D01*
X119202Y35299D01*
Y34799D01*
X119701Y34299D01*
X119202Y33800D01*
Y33300D01*
X119701Y32800D01*
X120701D01*
X121201Y33300D01*
Y33800D01*
X120701Y34299D01*
X121201Y34799D01*
Y35299D01*
X120701Y34299D02*
X119701D01*
M02*
