G04*
G04 #@! TF.GenerationSoftware,Altium Limited,Altium Designer,20.0.13 (296)*
G04*
G04 Layer_Color=8421504*
%FSLAX25Y25*%
%MOIN*%
G70*
G01*
G75*
%ADD19R,0.05315X0.01575*%
%ADD20R,0.06299X0.08268*%
%ADD21R,0.07480X0.07480*%
%ADD22R,0.08465X0.08465*%
%ADD23R,0.07874X0.07874*%
G04:AMPARAMS|DCode=24|XSize=11.81mil|YSize=47.24mil|CornerRadius=0mil|HoleSize=0mil|Usage=FLASHONLY|Rotation=45.000|XOffset=0mil|YOffset=0mil|HoleType=Round|Shape=Round|*
%AMOVALD24*
21,1,0.03543,0.01181,0.00000,0.00000,135.0*
1,1,0.01181,0.01253,-0.01253*
1,1,0.01181,-0.01253,0.01253*
%
%ADD24OVALD24*%

G04:AMPARAMS|DCode=25|XSize=11.81mil|YSize=47.24mil|CornerRadius=0mil|HoleSize=0mil|Usage=FLASHONLY|Rotation=135.000|XOffset=0mil|YOffset=0mil|HoleType=Round|Shape=Round|*
%AMOVALD25*
21,1,0.03543,0.01181,0.00000,0.00000,225.0*
1,1,0.01181,0.01253,0.01253*
1,1,0.01181,-0.01253,-0.01253*
%
%ADD25OVALD25*%

%ADD26R,0.04724X0.24000*%
%ADD27R,0.05118X0.07480*%
%ADD28R,0.04724X0.04724*%
D19*
X190206Y37381D02*
D03*
Y39940D02*
D03*
Y42499D02*
D03*
Y45058D02*
D03*
Y47617D02*
D03*
D20*
X190698Y30294D02*
D03*
Y54704D02*
D03*
D21*
X200246Y27538D02*
D03*
Y57460D02*
D03*
D22*
X175000Y67000D02*
D03*
D23*
X141535D02*
D03*
D24*
X83310Y48716D02*
D03*
X84701Y50108D02*
D03*
X86093Y51500D02*
D03*
X87485Y52892D02*
D03*
X88877Y54284D02*
D03*
X90269Y55676D02*
D03*
X91661Y57068D02*
D03*
X93053Y58460D02*
D03*
X94445Y59852D02*
D03*
X95837Y61244D02*
D03*
X97229Y62635D02*
D03*
X98621Y64028D02*
D03*
X122284Y40365D02*
D03*
X120892Y38972D02*
D03*
X119500Y37581D02*
D03*
X118108Y36189D02*
D03*
X116716Y34797D02*
D03*
X115324Y33405D02*
D03*
X113932Y32013D02*
D03*
X112540Y30621D02*
D03*
X111148Y29229D02*
D03*
X109756Y27837D02*
D03*
X108364Y26445D02*
D03*
X106973Y25053D02*
D03*
D25*
Y64028D02*
D03*
X108364Y62635D02*
D03*
X109756Y61244D02*
D03*
X111148Y59852D02*
D03*
X112540Y58460D02*
D03*
X113932Y57068D02*
D03*
X115324Y55676D02*
D03*
X116716Y54284D02*
D03*
X118108Y52892D02*
D03*
X119500Y51500D02*
D03*
X120892Y50108D02*
D03*
X122284Y48716D02*
D03*
X98621Y25053D02*
D03*
X97229Y26445D02*
D03*
X95837Y27837D02*
D03*
X94445Y29229D02*
D03*
X93053Y30621D02*
D03*
X91661Y32013D02*
D03*
X90269Y33405D02*
D03*
X88877Y34797D02*
D03*
X87485Y36189D02*
D03*
X86093Y37581D02*
D03*
X84701Y38972D02*
D03*
X83310Y40365D02*
D03*
D26*
X29232Y61910D02*
D03*
Y30413D02*
D03*
D27*
X70374Y28839D02*
D03*
X48720D02*
D03*
X70374Y41437D02*
D03*
X48720Y41437D02*
D03*
D28*
X62063Y53149D02*
D03*
X55063D02*
D03*
X61965Y63090D02*
D03*
X54965D02*
D03*
M02*
