G04*
G04 #@! TF.GenerationSoftware,Altium Limited,Altium Designer,20.0.13 (296)*
G04*
G04 Layer_Physical_Order=2*
G04 Layer_Color=16711680*
%FSLAX25Y25*%
%MOIN*%
G70*
G01*
G75*
%ADD13C,0.01000*%
%ADD44C,0.00800*%
%ADD46C,0.02000*%
%ADD47O,0.04000X0.07200*%
%ADD48R,0.04000X0.07200*%
%ADD49O,0.05906X0.07874*%
%ADD50O,0.09843X0.04724*%
%ADD51R,0.09843X0.04724*%
%ADD52C,0.01968*%
%ADD53C,0.02000*%
%ADD54R,0.05906X0.05118*%
%ADD55R,0.05000X0.05000*%
%ADD56R,0.05118X0.05906*%
%ADD57R,0.04803X0.02441*%
%ADD58R,0.05000X0.05000*%
G36*
X18233Y88696D02*
X14619Y85081D01*
X14287Y84585D01*
X14171Y84000D01*
Y71000D01*
X14287Y70415D01*
X14619Y69919D01*
X15115Y69587D01*
X15700Y69471D01*
X16285Y69587D01*
X16781Y69919D01*
X17113Y70415D01*
X17229Y71000D01*
Y83367D01*
X17832Y83969D01*
X18293Y83777D01*
Y81400D01*
X18488Y80424D01*
X19040Y79598D01*
X19867Y79045D01*
X20843Y78851D01*
X21818Y79045D01*
X22645Y79598D01*
X23198Y80424D01*
X23392Y81400D01*
Y84600D01*
X23198Y85575D01*
X23028Y85830D01*
X23263Y86271D01*
X28264D01*
X28500Y85830D01*
X28330Y85575D01*
X28136Y84600D01*
Y81400D01*
X28330Y80424D01*
X28883Y79598D01*
X29710Y79045D01*
X30685Y78851D01*
X31661Y79045D01*
X32487Y79598D01*
X33040Y80424D01*
X33234Y81400D01*
Y84600D01*
X33040Y85575D01*
X32709Y86071D01*
X32976Y86571D01*
X38709D01*
X38976Y86071D01*
X38645Y85575D01*
X38451Y84600D01*
Y81400D01*
X38645Y80424D01*
X39198Y79598D01*
X40025Y79045D01*
X41000Y78851D01*
X41976Y79045D01*
X42802Y79598D01*
X43355Y80424D01*
X43549Y81400D01*
Y84600D01*
X43355Y85575D01*
X43024Y86071D01*
X43291Y86571D01*
X48709D01*
X48976Y86071D01*
X48645Y85575D01*
X48451Y84600D01*
Y81400D01*
X48645Y80424D01*
X49198Y79598D01*
X50024Y79045D01*
X51000Y78851D01*
X51976Y79045D01*
X52802Y79598D01*
X53355Y80424D01*
X53549Y81400D01*
Y84600D01*
X53355Y85575D01*
X53024Y86071D01*
X53291Y86571D01*
X58709D01*
X58976Y86071D01*
X58645Y85575D01*
X58451Y84600D01*
Y81400D01*
X58645Y80424D01*
X59198Y79598D01*
X60024Y79045D01*
X61000Y78851D01*
X61976Y79045D01*
X62802Y79598D01*
X63355Y80424D01*
X63549Y81400D01*
Y84600D01*
X63355Y85575D01*
X63024Y86071D01*
X63291Y86571D01*
X68709D01*
X68976Y86071D01*
X68645Y85575D01*
X68451Y84600D01*
Y81400D01*
X68645Y80424D01*
X69198Y79598D01*
X70025Y79045D01*
X71000Y78851D01*
X71975Y79045D01*
X72802Y79598D01*
X73355Y80424D01*
X73549Y81400D01*
Y84600D01*
X73355Y85575D01*
X73024Y86071D01*
X73291Y86571D01*
X78709D01*
X78976Y86071D01*
X78645Y85575D01*
X78451Y84600D01*
Y81400D01*
X78645Y80424D01*
X79198Y79598D01*
X80024Y79045D01*
X81000Y78851D01*
X81975Y79045D01*
X82802Y79598D01*
X83355Y80424D01*
X83549Y81400D01*
Y84600D01*
X83355Y85575D01*
X83024Y86071D01*
X83291Y86571D01*
X88709D01*
X88976Y86071D01*
X88645Y85575D01*
X88451Y84600D01*
Y81400D01*
X88645Y80424D01*
X89198Y79598D01*
X90025Y79045D01*
X91000Y78851D01*
X91975Y79045D01*
X92802Y79598D01*
X93355Y80424D01*
X93549Y81400D01*
Y84600D01*
X93355Y85575D01*
X93024Y86071D01*
X93291Y86571D01*
X98709D01*
X98976Y86071D01*
X98645Y85575D01*
X98451Y84600D01*
Y81400D01*
X98645Y80424D01*
X99198Y79598D01*
X100024Y79045D01*
X101000Y78851D01*
X101976Y79045D01*
X102802Y79598D01*
X103355Y80424D01*
X103549Y81400D01*
Y84600D01*
X103355Y85575D01*
X103024Y86071D01*
X103291Y86571D01*
X108709D01*
X108976Y86071D01*
X108645Y85575D01*
X108451Y84600D01*
Y81771D01*
X108436Y81768D01*
X108105Y81547D01*
X100952Y74394D01*
X100731Y74063D01*
X100654Y73673D01*
Y68810D01*
X100154Y68603D01*
X97635Y71121D01*
X97304Y71342D01*
X96914Y71420D01*
X93422D01*
X88621Y76221D01*
X88290Y76442D01*
X87900Y76520D01*
X35300D01*
X34910Y76442D01*
X34579Y76221D01*
X28179Y69821D01*
X27958Y69490D01*
X27880Y69100D01*
Y65000D01*
X27958Y64610D01*
X28179Y64279D01*
X31953Y60505D01*
Y58374D01*
X29520D01*
Y52256D01*
X36426D01*
Y58374D01*
X33992D01*
Y60927D01*
X33915Y61317D01*
X33694Y61648D01*
X29920Y65422D01*
Y68678D01*
X35722Y74480D01*
X87478D01*
X92279Y69679D01*
X92610Y69458D01*
X93000Y69380D01*
X94700D01*
X94916Y68917D01*
X94910Y68880D01*
X94446Y68570D01*
X94412Y68520D01*
X77000D01*
X76610Y68442D01*
X76279Y68221D01*
X67878Y59820D01*
X64700D01*
X64310Y59742D01*
X63979Y59521D01*
X60510Y56051D01*
X60048Y56243D01*
Y59247D01*
X61251D01*
X61641Y59325D01*
X61972Y59546D01*
X63107Y60681D01*
X67665D01*
Y66681D01*
X63107D01*
X62067Y67721D01*
X61736Y67942D01*
X61346Y68020D01*
X35604D01*
X35570Y68070D01*
X35079Y68398D01*
X34500Y68513D01*
X33921Y68398D01*
X33430Y68070D01*
X33102Y67579D01*
X32987Y67000D01*
X33102Y66421D01*
X33430Y65930D01*
X33921Y65602D01*
X34500Y65487D01*
X35079Y65602D01*
X35570Y65930D01*
X35604Y65980D01*
X38732D01*
Y60484D01*
X43290D01*
X44425Y59349D01*
X44756Y59128D01*
X45146Y59050D01*
X46449D01*
Y54618D01*
X48080D01*
Y48722D01*
X40478Y41120D01*
X35404D01*
X35370Y41170D01*
X34879Y41498D01*
X34300Y41613D01*
X33721Y41498D01*
X33230Y41170D01*
X32902Y40679D01*
X32787Y40100D01*
X32902Y39521D01*
X33230Y39030D01*
X33721Y38702D01*
X34300Y38587D01*
X34879Y38702D01*
X35370Y39030D01*
X35404Y39080D01*
X40900D01*
X41290Y39158D01*
X41621Y39379D01*
X49821Y47579D01*
X50042Y47910D01*
X50120Y48300D01*
Y54618D01*
X52567D01*
Y61523D01*
X46449D01*
Y61089D01*
X45568D01*
X44732Y61926D01*
Y65980D01*
X60923D01*
X61665Y65239D01*
Y62123D01*
X60829Y61286D01*
X60048D01*
Y61523D01*
X53930D01*
Y54618D01*
X58423D01*
X58614Y54156D01*
X42378Y37920D01*
X23266D01*
X14227Y46959D01*
X14403Y47383D01*
X14501Y48130D01*
X14403Y48877D01*
X14114Y49573D01*
X13656Y50171D01*
X13058Y50630D01*
X12361Y50919D01*
X11614Y51017D01*
X6496D01*
X5749Y50919D01*
X5053Y50630D01*
X4455Y50171D01*
X3996Y49573D01*
X3708Y48877D01*
X3609Y48130D01*
X3708Y47383D01*
X3996Y46687D01*
X4455Y46089D01*
X5053Y45630D01*
X5749Y45341D01*
X6496Y45243D01*
X11614D01*
X12361Y45341D01*
X12785Y45517D01*
X18653Y39650D01*
X18446Y39149D01*
X14290D01*
X14114Y39573D01*
X13656Y40171D01*
X13058Y40630D01*
X12361Y40918D01*
X11614Y41017D01*
X6496D01*
X5749Y40918D01*
X5053Y40630D01*
X4455Y40171D01*
X3996Y39573D01*
X3708Y38877D01*
X3609Y38130D01*
X3708Y37383D01*
X3996Y36687D01*
X4455Y36089D01*
X5053Y35630D01*
X5749Y35341D01*
X6496Y35243D01*
X11614D01*
X12361Y35341D01*
X13058Y35630D01*
X13656Y36089D01*
X14114Y36687D01*
X14290Y37110D01*
X18448D01*
X21579Y33979D01*
X21910Y33758D01*
X22300Y33680D01*
X43200D01*
X43590Y33758D01*
X43921Y33979D01*
X65922Y55980D01*
X68228D01*
X68419Y55519D01*
X24289Y11388D01*
X24145Y11402D01*
X23318Y11955D01*
X22343Y12149D01*
X21367Y11955D01*
X20540Y11402D01*
X19988Y10575D01*
X19794Y9600D01*
Y6400D01*
X19988Y5424D01*
X20540Y4598D01*
X21367Y4045D01*
X22343Y3851D01*
X23318Y4045D01*
X24145Y4598D01*
X24698Y5424D01*
X24892Y6400D01*
Y9229D01*
X24907Y9232D01*
X25238Y9453D01*
X73565Y57780D01*
X76396D01*
X76430Y57730D01*
X76921Y57402D01*
X77500Y57287D01*
X78079Y57402D01*
X78570Y57730D01*
X78898Y58221D01*
X79013Y58800D01*
X79000Y58867D01*
X79391Y59437D01*
X79490Y59454D01*
X79980Y58963D01*
Y56022D01*
X79517Y55800D01*
X79480Y55806D01*
X79170Y56270D01*
X78679Y56598D01*
X78100Y56713D01*
X77521Y56598D01*
X77030Y56270D01*
X76702Y55779D01*
X76634Y55438D01*
X75665Y54469D01*
X75506Y54363D01*
X33108Y11965D01*
X32185Y12149D01*
X31210Y11955D01*
X30383Y11402D01*
X29830Y10575D01*
X29636Y9600D01*
Y6400D01*
X29830Y5424D01*
X30383Y4598D01*
X31210Y4045D01*
X32185Y3851D01*
X33160Y4045D01*
X33987Y4598D01*
X34540Y5424D01*
X34734Y6400D01*
Y9600D01*
X34550Y10523D01*
X76841Y52814D01*
X77001Y52921D01*
X77822Y53742D01*
X78100Y53687D01*
X78679Y53802D01*
X79170Y54130D01*
X79480Y54594D01*
X79517Y54600D01*
X79980Y54378D01*
Y37397D01*
X79480Y37245D01*
X79318Y37487D01*
X78827Y37815D01*
X78248Y37931D01*
X77669Y37815D01*
X77178Y37487D01*
X77144Y37437D01*
X69317D01*
X68927Y37359D01*
X68596Y37138D01*
X43423Y11965D01*
X42500Y12149D01*
X41525Y11955D01*
X40698Y11402D01*
X40145Y10575D01*
X39951Y9600D01*
Y6400D01*
X40145Y5424D01*
X40698Y4598D01*
X41525Y4045D01*
X42500Y3851D01*
X43475Y4045D01*
X44302Y4598D01*
X44855Y5424D01*
X45049Y6400D01*
Y9600D01*
X44865Y10523D01*
X69740Y35398D01*
X77144D01*
X77178Y35347D01*
X77669Y35019D01*
X78248Y34904D01*
X78827Y35019D01*
X79318Y35347D01*
X79480Y35590D01*
X79980Y35438D01*
Y29099D01*
X77547D01*
Y22981D01*
X84452D01*
Y29099D01*
X82019D01*
Y59386D01*
X81942Y59776D01*
X81721Y60107D01*
X79981Y61846D01*
X80298Y62321D01*
X80413Y62900D01*
X80318Y63380D01*
X80586Y63880D01*
X84278D01*
X95780Y52378D01*
Y49396D01*
X95502Y48979D01*
X95387Y48400D01*
X95502Y47821D01*
X95830Y47330D01*
X96321Y47002D01*
X96900Y46887D01*
X97479Y47002D01*
X97970Y47330D01*
X98280Y47794D01*
X98317Y47800D01*
X98780Y47584D01*
Y38900D01*
X98858Y38510D01*
X99079Y38179D01*
X100879Y36379D01*
X101210Y36158D01*
X101600Y36080D01*
X117513D01*
X117904Y36158D01*
X118234Y36379D01*
X127204Y45349D01*
X127264Y45337D01*
X127843Y45452D01*
X128334Y45780D01*
X128368Y45831D01*
X139862D01*
X140252Y45908D01*
X140583Y46129D01*
X141968Y47514D01*
X142028Y47502D01*
X142607Y47618D01*
X143098Y47946D01*
X143426Y48437D01*
X143541Y49016D01*
X143426Y49595D01*
X143098Y50086D01*
X142607Y50414D01*
X142028Y50529D01*
X141448Y50414D01*
X140957Y50086D01*
X140629Y49595D01*
X140514Y49016D01*
X140526Y48956D01*
X139440Y47870D01*
X128368D01*
X128334Y47921D01*
X127843Y48248D01*
X127264Y48364D01*
X126826Y48276D01*
X126568Y48726D01*
X130464Y52622D01*
X137380D01*
X137414Y52572D01*
X137905Y52244D01*
X138484Y52128D01*
X139063Y52244D01*
X139554Y52572D01*
X139882Y53063D01*
X139998Y53642D01*
X139882Y54221D01*
X139554Y54712D01*
X139063Y55040D01*
X138484Y55155D01*
X137905Y55040D01*
X137414Y54712D01*
X137380Y54661D01*
X130042D01*
X129651Y54584D01*
X129321Y54363D01*
X126628Y51670D01*
X126240Y51989D01*
X126300Y52078D01*
X126415Y52658D01*
X126403Y52717D01*
X130048Y56362D01*
X131484D01*
X131632Y56140D01*
X132123Y55812D01*
X132703Y55697D01*
X133282Y55812D01*
X133773Y56140D01*
X134101Y56631D01*
X134216Y57210D01*
X134155Y57516D01*
X134616Y57762D01*
X136099Y56279D01*
X136430Y56058D01*
X136820Y55980D01*
X139096D01*
X139130Y55930D01*
X139621Y55602D01*
X140200Y55487D01*
X140260Y55498D01*
X144780Y50978D01*
Y45622D01*
X133779Y34621D01*
X133558Y34290D01*
X133480Y33900D01*
Y30020D01*
X133297Y29596D01*
X127833D01*
X125508Y31921D01*
X125177Y32142D01*
X125152Y32147D01*
X125070Y32270D01*
X124579Y32598D01*
X124000Y32713D01*
X123421Y32598D01*
X122930Y32270D01*
X122602Y31779D01*
X122487Y31200D01*
X122602Y30621D01*
X122930Y30130D01*
X123124Y30000D01*
X122973Y29500D01*
X118200D01*
Y27520D01*
X115900D01*
Y29500D01*
X109900D01*
Y27520D01*
X107600D01*
Y29500D01*
X101600D01*
Y27520D01*
X90800D01*
X90320Y27934D01*
Y41800D01*
X90242Y42190D01*
X90021Y42521D01*
X88502Y44040D01*
X88513Y44100D01*
X88398Y44679D01*
X88070Y45170D01*
X87579Y45498D01*
X87000Y45613D01*
X86421Y45498D01*
X85930Y45170D01*
X85602Y44679D01*
X85487Y44100D01*
X85602Y43521D01*
X85930Y43030D01*
X86421Y42702D01*
X87000Y42587D01*
X87060Y42599D01*
X88280Y41378D01*
Y26104D01*
X88230Y26070D01*
X87902Y25579D01*
X87787Y25000D01*
X87902Y24421D01*
X88230Y23930D01*
X88721Y23602D01*
X89300Y23487D01*
X89879Y23602D01*
X90370Y23930D01*
X90698Y24421D01*
X90813Y25000D01*
X90802Y25060D01*
X91222Y25480D01*
X101600D01*
Y23500D01*
X107600D01*
Y25480D01*
X109900D01*
Y23500D01*
X115900D01*
Y25480D01*
X118200D01*
Y23500D01*
X124200D01*
Y29217D01*
X124200Y29500D01*
X124575Y29801D01*
X124579Y29802D01*
X124677Y29868D01*
X126391Y28154D01*
Y23881D01*
X126118Y23698D01*
X124779Y22359D01*
X124558Y22029D01*
X124480Y21639D01*
Y11885D01*
X123980Y11618D01*
X123476Y11955D01*
X122500Y12149D01*
X121525Y11955D01*
X120698Y11402D01*
X120145Y10575D01*
X119951Y9600D01*
Y6400D01*
X120145Y5424D01*
X120483Y4920D01*
X120215Y4420D01*
X114785D01*
X114518Y4920D01*
X114855Y5424D01*
X115049Y6400D01*
Y9600D01*
X114855Y10575D01*
X114302Y11402D01*
X113476Y11955D01*
X112500Y12149D01*
X111524Y11955D01*
X110698Y11402D01*
X110145Y10575D01*
X109951Y9600D01*
Y6400D01*
X110145Y5424D01*
X110482Y4920D01*
X110215Y4420D01*
X104785D01*
X104518Y4920D01*
X104855Y5424D01*
X105049Y6400D01*
Y9600D01*
X104855Y10575D01*
X104302Y11402D01*
X103475Y11955D01*
X102500Y12149D01*
X101525Y11955D01*
X100698Y11402D01*
X100145Y10575D01*
X99951Y9600D01*
Y6400D01*
X100145Y5424D01*
X100482Y4920D01*
X100215Y4420D01*
X94785D01*
X94518Y4920D01*
X94855Y5424D01*
X95049Y6400D01*
Y9600D01*
X94855Y10575D01*
X94302Y11402D01*
X93476Y11955D01*
X92500Y12149D01*
X91524Y11955D01*
X90698Y11402D01*
X90145Y10575D01*
X89951Y9600D01*
Y6400D01*
X90145Y5424D01*
X90482Y4920D01*
X90215Y4420D01*
X84785D01*
X84518Y4920D01*
X84855Y5424D01*
X85049Y6400D01*
Y9600D01*
X84855Y10575D01*
X84302Y11402D01*
X83476Y11955D01*
X82500Y12149D01*
X81524Y11955D01*
X80698Y11402D01*
X80145Y10575D01*
X79951Y9600D01*
Y6400D01*
X80145Y5424D01*
X80482Y4920D01*
X80215Y4420D01*
X74785D01*
X74518Y4920D01*
X74855Y5424D01*
X75049Y6400D01*
Y9600D01*
X74855Y10575D01*
X74302Y11402D01*
X73475Y11955D01*
X72500Y12149D01*
X71525Y11955D01*
X70698Y11402D01*
X70145Y10575D01*
X69951Y9600D01*
Y6400D01*
X70145Y5424D01*
X70482Y4920D01*
X70215Y4420D01*
X64785D01*
X64518Y4920D01*
X64855Y5424D01*
X65049Y6400D01*
Y9600D01*
X64855Y10575D01*
X64302Y11402D01*
X63476Y11955D01*
X62500Y12149D01*
X61524Y11955D01*
X60698Y11402D01*
X60145Y10575D01*
X59951Y9600D01*
Y6400D01*
X60076Y5773D01*
X59615Y5527D01*
X58601Y6540D01*
X58613Y6600D01*
X58498Y7179D01*
X58170Y7670D01*
X57679Y7998D01*
X57100Y8113D01*
X56521Y7998D01*
X56030Y7670D01*
X55702Y7179D01*
X55587Y6600D01*
X55702Y6021D01*
X56030Y5530D01*
X56521Y5202D01*
X57100Y5087D01*
X57160Y5099D01*
X59139Y3120D01*
X58931Y2620D01*
X51808D01*
X48820Y5608D01*
Y10178D01*
X50201Y11559D01*
X50589Y11240D01*
X50536Y11160D01*
X50145Y10575D01*
X49951Y9600D01*
Y6400D01*
X50145Y5424D01*
X50698Y4598D01*
X51525Y4045D01*
X52500Y3851D01*
X53475Y4045D01*
X54302Y4598D01*
X54855Y5424D01*
X55049Y6400D01*
Y9600D01*
X54855Y10575D01*
X54302Y11402D01*
X53475Y11955D01*
X52500Y12149D01*
X51525Y11955D01*
X50940Y11564D01*
X50860Y11511D01*
X50541Y11899D01*
X56182Y17540D01*
X77547D01*
Y15500D01*
X84452D01*
Y21619D01*
X77547D01*
Y19579D01*
X55760D01*
X55369Y19501D01*
X55039Y19281D01*
X47079Y11321D01*
X46858Y10990D01*
X46780Y10600D01*
Y5186D01*
X46858Y4796D01*
X47079Y4465D01*
X50279Y1265D01*
X50072Y765D01*
X765D01*
Y89196D01*
X18026D01*
X18233Y88696D01*
D02*
G37*
G36*
X206971Y81416D02*
Y66046D01*
X206509Y65854D01*
X199824Y72539D01*
X199328Y72870D01*
X198743Y72986D01*
X185776D01*
Y74457D01*
X179776D01*
Y72725D01*
X174178D01*
X174030Y72695D01*
X171055D01*
Y72284D01*
X170554D01*
X169969Y72167D01*
X169473Y71836D01*
X167619Y69981D01*
X167287Y69485D01*
X167171Y68900D01*
Y64900D01*
X167287Y64315D01*
X167619Y63819D01*
X169119Y62319D01*
X169615Y61987D01*
X170200Y61871D01*
X171055D01*
Y61774D01*
X173471D01*
Y57499D01*
X171548D01*
Y51381D01*
X178453D01*
Y57499D01*
X176530D01*
Y61774D01*
X176859D01*
Y65215D01*
X171055D01*
Y65215D01*
X170595Y65208D01*
X170229Y65570D01*
Y68266D01*
X171188Y69225D01*
X173737D01*
X173884Y69254D01*
X176859D01*
Y69666D01*
X179776D01*
Y68457D01*
X185776D01*
Y69928D01*
X198109D01*
X204471Y63566D01*
Y44633D01*
X198770Y38933D01*
X197587D01*
X197002Y38816D01*
X196506Y38485D01*
X196174Y37988D01*
X196058Y37403D01*
X196174Y36818D01*
X196506Y36322D01*
X197002Y35990D01*
X197587Y35874D01*
X199403D01*
X199988Y35990D01*
X200485Y36322D01*
X206509Y42346D01*
X206971Y42154D01*
Y23633D01*
X203966Y20629D01*
X188233D01*
X184317Y24546D01*
X183821Y24878D01*
X183235Y24994D01*
X173549D01*
X173502Y25350D01*
X173154Y26190D01*
X172600Y26911D01*
X171879Y27465D01*
X171039Y27813D01*
X170138Y27931D01*
X169236Y27813D01*
X168396Y27465D01*
X167675Y26911D01*
X167122Y26190D01*
X166774Y25350D01*
X166655Y24449D01*
Y22956D01*
X166155Y22779D01*
X165920Y23045D01*
Y25600D01*
X165842Y25990D01*
X165621Y26321D01*
X162721Y29221D01*
X162540Y29342D01*
X162464Y29809D01*
X162488Y29932D01*
X162600Y30018D01*
X163154Y30739D01*
X163502Y31579D01*
X163620Y32480D01*
Y34449D01*
X163502Y35350D01*
X163154Y36190D01*
X162630Y36872D01*
X162686Y37165D01*
X162757Y37372D01*
X165051D01*
X166862Y35562D01*
X166774Y35350D01*
X166655Y34449D01*
Y32480D01*
X166774Y31579D01*
X167122Y30739D01*
X167675Y30018D01*
X168396Y29464D01*
X169236Y29116D01*
X170138Y28998D01*
X171039Y29116D01*
X171879Y29464D01*
X172600Y30018D01*
X173154Y30739D01*
X173502Y31579D01*
X173620Y32480D01*
Y34449D01*
X173502Y35350D01*
X173154Y36190D01*
X172600Y36911D01*
X171879Y37465D01*
X171039Y37813D01*
X170138Y37931D01*
X169236Y37813D01*
X169025Y37725D01*
X166767Y39983D01*
X166270Y40315D01*
X165685Y40431D01*
X144502D01*
X143916Y40315D01*
X143420Y39983D01*
X138319Y34882D01*
X137987Y34386D01*
X137871Y33800D01*
Y33637D01*
X137371Y33370D01*
X137179Y33498D01*
X136600Y33613D01*
X136303Y33554D01*
X136057Y34015D01*
X146521Y44479D01*
X146742Y44810D01*
X146820Y45200D01*
Y51400D01*
X146742Y51790D01*
X146521Y52121D01*
X143123Y55519D01*
X143315Y55980D01*
X145169D01*
X147770Y53379D01*
X148101Y53158D01*
X148491Y53081D01*
X155763D01*
Y51100D01*
X161763D01*
Y57100D01*
X155763D01*
Y55120D01*
X148913D01*
X146312Y57721D01*
X145982Y57942D01*
X145591Y58020D01*
X141304D01*
X141270Y58070D01*
X140779Y58398D01*
X140200Y58513D01*
X139621Y58398D01*
X139130Y58070D01*
X139096Y58020D01*
X137242D01*
X132881Y62380D01*
Y67056D01*
X127430D01*
X127239Y67518D01*
X128139Y68419D01*
X132882D01*
Y69840D01*
X136272D01*
Y68260D01*
X142272D01*
Y69682D01*
X144343D01*
Y68162D01*
X150343D01*
Y71999D01*
X152100Y73756D01*
X152600Y73736D01*
Y67837D01*
X156437D01*
X157856Y66419D01*
X158352Y66087D01*
X158938Y65971D01*
X161726D01*
X162002Y65695D01*
X161846Y65195D01*
X160740D01*
Y61754D01*
X166544D01*
Y65195D01*
X165171D01*
Y66328D01*
X165055Y66914D01*
X164724Y67410D01*
X163552Y68581D01*
X163293Y68754D01*
X163445Y69254D01*
X166544D01*
Y70532D01*
X169782Y73771D01*
X175428D01*
X176014Y73887D01*
X176510Y74219D01*
X181178Y78886D01*
X181975Y79045D01*
X182802Y79598D01*
X183355Y80424D01*
X183549Y81400D01*
Y84600D01*
X183485Y84922D01*
X184933Y86371D01*
X189350D01*
X189936Y86487D01*
X190061Y86571D01*
X201816D01*
X206971Y81416D01*
D02*
G37*
G36*
X157765Y26980D02*
X157675Y26911D01*
X157122Y26190D01*
X156774Y25350D01*
X156655Y24449D01*
Y24315D01*
X156155Y24047D01*
X156079Y24098D01*
X155500Y24213D01*
X154921Y24098D01*
X154430Y23770D01*
X154102Y23279D01*
X153987Y22700D01*
X154102Y22121D01*
X154430Y21630D01*
X154480Y21596D01*
Y11885D01*
X153980Y11618D01*
X153475Y11955D01*
X152500Y12149D01*
X151525Y11955D01*
X150698Y11402D01*
X150145Y10575D01*
X149951Y9600D01*
Y6400D01*
X150145Y5424D01*
X150698Y4598D01*
X151525Y4045D01*
X152120Y3927D01*
X152285Y3384D01*
X151520Y2620D01*
X125111D01*
X124904Y3120D01*
X126221Y4436D01*
X126442Y4767D01*
X126520Y5157D01*
Y15997D01*
X128824D01*
Y14556D01*
X128902Y14166D01*
X129123Y13835D01*
X130279Y12679D01*
X130610Y12458D01*
X131000Y12380D01*
X131296D01*
X131413Y11880D01*
X130698Y11402D01*
X130145Y10575D01*
X129951Y9600D01*
Y6400D01*
X130145Y5424D01*
X130698Y4598D01*
X131525Y4045D01*
X132500Y3851D01*
X133475Y4045D01*
X134302Y4598D01*
X134855Y5424D01*
X135049Y6400D01*
Y9600D01*
X134855Y10575D01*
X134302Y11402D01*
X133587Y11880D01*
X133704Y12380D01*
X141296D01*
X141413Y11880D01*
X140698Y11402D01*
X140145Y10575D01*
X139951Y9600D01*
Y6400D01*
X140145Y5424D01*
X140698Y4598D01*
X141525Y4045D01*
X142500Y3851D01*
X143475Y4045D01*
X144302Y4598D01*
X144855Y5424D01*
X145049Y6400D01*
Y9600D01*
X144855Y10575D01*
X144302Y11402D01*
X143475Y11955D01*
X142521Y12145D01*
X142478Y12215D01*
X142344Y12628D01*
X142421Y12679D01*
X145521Y15779D01*
X145742Y16110D01*
X145820Y16500D01*
Y24878D01*
X148422Y27480D01*
X157596D01*
X157765Y26980D01*
D02*
G37*
G36*
X157589Y37165D02*
X157645Y36872D01*
X157122Y36190D01*
X156774Y35350D01*
X156655Y34449D01*
Y32480D01*
X156774Y31579D01*
X157122Y30739D01*
X157675Y30018D01*
X157708Y29993D01*
X157547Y29520D01*
X148000D01*
X147610Y29442D01*
X147279Y29221D01*
X144079Y26021D01*
X143858Y25690D01*
X143780Y25300D01*
Y16922D01*
X141278Y14420D01*
X131422D01*
X130863Y14978D01*
Y15997D01*
X133297D01*
Y21958D01*
X133578D01*
X133968Y22036D01*
X134298Y22256D01*
X135221Y23179D01*
X135442Y23510D01*
X135520Y23900D01*
Y30349D01*
X135949Y30605D01*
X136381Y30415D01*
Y28537D01*
X136400Y28439D01*
Y23537D01*
X142400D01*
Y29537D01*
X140930D01*
Y33167D01*
X145135Y37372D01*
X157519D01*
X157589Y37165D01*
D02*
G37*
G36*
X210238Y22293D02*
X210357Y22248D01*
Y765D01*
X153256D01*
X153049Y1265D01*
X156221Y4436D01*
X156442Y4767D01*
X156520Y5157D01*
Y20886D01*
X157020Y20986D01*
X157122Y20739D01*
X157675Y20018D01*
X158396Y19464D01*
X159236Y19116D01*
X160138Y18998D01*
X161039Y19116D01*
X161879Y19464D01*
X162600Y20018D01*
X163154Y20739D01*
X163220Y20899D01*
X163649Y20941D01*
X163765Y20907D01*
X164221Y20602D01*
X164800Y20487D01*
X165379Y20602D01*
X165870Y20930D01*
X166198Y21421D01*
X166254Y21700D01*
X166760Y21684D01*
X166774Y21579D01*
X167122Y20739D01*
X167675Y20018D01*
X168396Y19464D01*
X169236Y19116D01*
X170138Y18998D01*
X171039Y19116D01*
X171879Y19464D01*
X172600Y20018D01*
X173154Y20739D01*
X173502Y21579D01*
X173549Y21935D01*
X182602D01*
X186519Y18019D01*
X187015Y17687D01*
X187600Y17571D01*
X204600D01*
X205185Y17687D01*
X205681Y18019D01*
X209581Y21919D01*
X209857Y22332D01*
X210238Y22293D01*
D02*
G37*
%LPC*%
G36*
X41700Y51713D02*
X41121Y51598D01*
X40630Y51270D01*
X40302Y50779D01*
X40187Y50200D01*
X40198Y50140D01*
X38913Y48855D01*
X36426D01*
Y50894D01*
X29520D01*
X29520Y44776D01*
X29043Y44720D01*
X28180D01*
X26681Y46218D01*
Y50894D01*
X19776D01*
Y44776D01*
X25240D01*
X27036Y42979D01*
X27367Y42758D01*
X27757Y42680D01*
X40200D01*
X40590Y42758D01*
X40921Y42979D01*
X42821Y44879D01*
X42821Y44879D01*
X45540Y47598D01*
X45600Y47587D01*
X46179Y47702D01*
X46670Y48030D01*
X46998Y48521D01*
X47113Y49100D01*
X46998Y49679D01*
X46670Y50170D01*
X46179Y50498D01*
X45600Y50613D01*
X45021Y50498D01*
X44530Y50170D01*
X44202Y49679D01*
X44087Y49100D01*
X44098Y49040D01*
X41379Y46321D01*
X41379Y46321D01*
X39778Y44720D01*
X36902D01*
X36426Y44776D01*
X36426Y45220D01*
Y46815D01*
X39335D01*
X39725Y46893D01*
X40056Y47114D01*
X41640Y48698D01*
X41700Y48687D01*
X42279Y48802D01*
X42770Y49130D01*
X43098Y49621D01*
X43213Y50200D01*
X43098Y50779D01*
X42770Y51270D01*
X42279Y51598D01*
X41700Y51713D01*
D02*
G37*
G36*
X11614Y31017D02*
X6496D01*
X5749Y30918D01*
X5053Y30630D01*
X4455Y30171D01*
X3996Y29573D01*
X3708Y28877D01*
X3609Y28130D01*
X3708Y27383D01*
X3996Y26686D01*
X4455Y26089D01*
X5053Y25630D01*
X5749Y25341D01*
X6496Y25243D01*
X11614D01*
X12361Y25341D01*
X13058Y25630D01*
X13656Y26089D01*
X14114Y26686D01*
X14403Y27383D01*
X14501Y28130D01*
X14403Y28877D01*
X14114Y29573D01*
X13656Y30171D01*
X13058Y30630D01*
X12361Y30918D01*
X11614Y31017D01*
D02*
G37*
G36*
X178453Y50019D02*
X171548D01*
Y43901D01*
X177071D01*
X177159Y43883D01*
X180627D01*
X180930Y43430D01*
X181421Y43102D01*
X182000Y42987D01*
X182579Y43102D01*
X183070Y43430D01*
X183398Y43921D01*
X183513Y44500D01*
X183398Y45079D01*
X183070Y45570D01*
X182579Y45898D01*
X182000Y46013D01*
X181421Y45898D01*
X181152Y45719D01*
X178453D01*
Y50019D01*
D02*
G37*
G36*
X182500Y12149D02*
X181525Y11955D01*
X180698Y11402D01*
X180145Y10575D01*
X179951Y9600D01*
Y6400D01*
X180145Y5424D01*
X180698Y4598D01*
X181525Y4045D01*
X182500Y3851D01*
X183475Y4045D01*
X184302Y4598D01*
X184855Y5424D01*
X185049Y6400D01*
Y9600D01*
X184855Y10575D01*
X184302Y11402D01*
X183475Y11955D01*
X182500Y12149D01*
D02*
G37*
G36*
X172500D02*
X171525Y11955D01*
X170698Y11402D01*
X170145Y10575D01*
X169951Y9600D01*
Y6400D01*
X170145Y5424D01*
X170698Y4598D01*
X171525Y4045D01*
X172500Y3851D01*
X173475Y4045D01*
X174302Y4598D01*
X174855Y5424D01*
X175049Y6400D01*
Y9600D01*
X174855Y10575D01*
X174302Y11402D01*
X173475Y11955D01*
X172500Y12149D01*
D02*
G37*
G36*
X162500D02*
X161525Y11955D01*
X160698Y11402D01*
X160145Y10575D01*
X159951Y9600D01*
Y6400D01*
X160145Y5424D01*
X160698Y4598D01*
X161525Y4045D01*
X162500Y3851D01*
X163476Y4045D01*
X164302Y4598D01*
X164855Y5424D01*
X165049Y6400D01*
Y9600D01*
X164855Y10575D01*
X164302Y11402D01*
X163476Y11955D01*
X162500Y12149D01*
D02*
G37*
%LPD*%
D13*
X136600Y31838D02*
X137400Y31038D01*
X136600Y31838D02*
Y32100D01*
X113681Y43110D02*
X119510D01*
X77838Y55200D02*
X78100D01*
X76280Y53642D02*
X77838Y55200D01*
X76227Y53642D02*
X76280D01*
X24517Y10174D02*
X73143Y58800D01*
X77500Y58425D02*
Y58800D01*
X73143D02*
X77500D01*
X78900Y61485D02*
X81000Y59386D01*
X78900Y61485D02*
Y62900D01*
X81000Y26040D02*
Y59386D01*
X32185Y9600D02*
X76227Y53642D01*
X110293Y48407D02*
X111993D01*
X105300Y53400D02*
X110293Y48407D01*
X105300Y53400D02*
Y63174D01*
X103543Y52559D02*
X107868Y48234D01*
Y48026D02*
Y48234D01*
X105300Y63174D02*
X120426Y78300D01*
X111993Y48407D02*
X112000Y48400D01*
X117513Y37100D02*
X127264Y46850D01*
X101600Y37100D02*
X117513D01*
X99800Y38900D02*
X101600Y37100D01*
X99800Y38900D02*
Y67514D01*
X93000Y70400D02*
X96914D01*
X99800Y67514D01*
X77000Y67500D02*
X95516D01*
X87900Y75500D02*
X93000Y70400D01*
X35300Y75500D02*
X87900D01*
X28900Y65000D02*
Y69100D01*
X35300Y75500D01*
X28900Y65000D02*
X32973Y60927D01*
Y55315D02*
Y60927D01*
X34500Y67000D02*
X61346D01*
X64665Y63681D01*
X84700Y64900D02*
X96800Y52800D01*
Y48200D02*
Y52800D01*
X69000Y57000D02*
X76900Y64900D01*
X84700D01*
X64700Y58800D02*
X68300D01*
X77000Y67500D01*
X22343Y8788D02*
X23728Y10174D01*
X22343Y8000D02*
Y8788D01*
X23728Y10174D02*
X24517D01*
X65500Y57000D02*
X69000D01*
X43200Y34700D02*
X65500Y57000D01*
X22300Y34700D02*
X43200D01*
X9055Y38130D02*
X18870D01*
X22300Y34700D01*
X22844Y36900D02*
X42800D01*
X11614Y48130D02*
X22844Y36900D01*
X42800D02*
X64700Y58800D01*
X34300Y40100D02*
X40900D01*
X49100Y48300D01*
Y57662D01*
X9055Y48130D02*
X11614D01*
X49100Y57662D02*
X49508Y58071D01*
X42100Y45600D02*
X45600Y49100D01*
X47509Y60070D02*
X49508Y58071D01*
X45146Y60070D02*
X47509D01*
X41732Y63484D02*
X45146Y60070D01*
X56989Y58070D02*
Y58207D01*
X59048Y60267D01*
X61251D01*
X64665Y63681D01*
X27757Y43700D02*
X40200D01*
X42100Y45600D02*
Y45600D01*
X40200Y43700D02*
X42100Y45600D01*
X23229Y47835D02*
X23622D01*
X27757Y43700D01*
X32973Y47835D02*
X39335D01*
X41700Y50200D01*
X121023Y55807D02*
Y73287D01*
X123888Y76151D02*
X134151D01*
X121023Y73287D02*
X123888Y76151D01*
X130600Y83400D02*
X131000Y83000D01*
X124100Y81700D02*
X125800Y83400D01*
X130600D01*
X122143Y78300D02*
X124100Y80257D01*
Y81700D01*
X120426Y78300D02*
X122143D01*
X131000Y82212D02*
Y83000D01*
X129614Y80826D02*
X131000Y82212D01*
X164800Y22000D02*
X164900Y22100D01*
Y25600D01*
X148000Y28500D02*
X162000D01*
X164900Y25600D01*
X144800Y25300D02*
X148000Y28500D01*
X144800Y16500D02*
Y25300D01*
X141700Y13400D02*
X144800Y16500D01*
X131000Y13400D02*
X141700D01*
X129844Y14556D02*
Y19056D01*
Y14556D02*
X131000Y13400D01*
X155500Y5157D02*
Y22700D01*
X151943Y1600D02*
X155500Y5157D01*
X51386Y1600D02*
X151943D01*
X155500Y22700D02*
X155500Y22700D01*
X133578Y22977D02*
X134500Y23900D01*
X126839Y22977D02*
X133578D01*
X134500Y33900D02*
X145800Y45200D01*
X134500Y23900D02*
Y33900D01*
X125500Y21639D02*
X126839Y22977D01*
X125500Y5157D02*
Y21639D01*
X123743Y3400D02*
X125500Y5157D01*
X60300Y3400D02*
X123743D01*
X47800Y5186D02*
Y10600D01*
Y5186D02*
X51386Y1600D01*
X57100Y6600D02*
X60300Y3400D01*
X55760Y18560D02*
X81000D01*
X47800Y10600D02*
X55760Y18560D01*
X140200Y57000D02*
X145800Y51400D01*
Y45200D02*
Y51400D01*
X89300Y25000D02*
Y41800D01*
X87000Y44100D02*
X89300Y41800D01*
Y25000D02*
X90800Y26500D01*
X69317Y36417D02*
X78248D01*
X78347D01*
X90800Y26500D02*
X104600D01*
X112900D02*
X121200D01*
X104600D02*
X112900D01*
X137400Y28537D02*
X139400Y26537D01*
X137400Y28537D02*
Y31038D01*
X140200Y57000D02*
X145591D01*
X136820D02*
X140200D01*
X124787Y31200D02*
X129450Y26537D01*
X124000Y31200D02*
X124787D01*
X129450Y26537D02*
X129844D01*
X129823Y63997D02*
X136820Y57000D01*
X145591D02*
X148491Y54100D01*
X130042Y53642D02*
X138484D01*
X119510Y43110D02*
X130042Y53642D01*
X129429Y63997D02*
X129823D01*
X148491Y54100D02*
X158763D01*
X132531Y57382D02*
X132703Y57210D01*
X129626Y57382D02*
X132531D01*
X134151Y76151D02*
X138826Y80826D01*
X42500Y9600D02*
X69317Y36417D01*
X42500Y8000D02*
Y9600D01*
X32185Y8000D02*
Y9600D01*
X124902Y52658D02*
X129626Y57382D01*
X127264Y46850D02*
X139862D01*
X142028Y49016D01*
X101673Y73673D02*
X108826Y80826D01*
X109614D01*
X101673Y51824D02*
Y73673D01*
X109614Y80826D02*
X111000Y82212D01*
X103543Y65543D02*
X118826Y80826D01*
X119614D01*
X103543Y52559D02*
Y65543D01*
X111000Y82212D02*
Y83000D01*
X139614Y80826D02*
X141000Y82212D01*
X138826Y80826D02*
X139614D01*
X141000Y82212D02*
Y83000D01*
X101673Y51824D02*
X104441Y49057D01*
X119614Y80826D02*
X121000Y82212D01*
Y83000D01*
X104441Y47921D02*
X104626Y47736D01*
X104441Y47921D02*
Y49057D01*
D44*
X175000Y46960D02*
X177159Y44801D01*
X181383D01*
X181684Y44500D01*
X182000D01*
D46*
X189350Y87900D02*
X189550Y88100D01*
X202450D02*
X208500Y82050D01*
Y23000D02*
Y82050D01*
X189550Y88100D02*
X202450D01*
X181000Y84600D02*
X184300Y87900D01*
X189350D01*
X172450Y88100D02*
X172750Y87800D01*
X29235Y88100D02*
X172450D01*
X28935Y87800D02*
X29235Y88100D01*
X172750Y87800D02*
X184200D01*
X19500D02*
X28935D01*
X15700Y84000D02*
X19500Y87800D01*
X128926Y71369D02*
X129538D01*
X199403Y37403D02*
X206000Y44000D01*
X197587Y37403D02*
X199403D01*
X206000Y44000D02*
Y64200D01*
X198743Y71457D02*
X206000Y64200D01*
X182776Y71457D02*
X198743D01*
X170200Y63400D02*
X174874D01*
X175000Y54440D02*
Y63274D01*
X174874Y63400D02*
X175000Y63274D01*
X15700Y71000D02*
Y84000D01*
X139400Y33800D02*
X144502Y38902D01*
X165685D01*
X170138Y34449D01*
Y33465D02*
Y34449D01*
X139400Y26537D02*
Y33800D01*
X170138Y23465D02*
X183235D01*
X187600Y19100D01*
X204600D02*
X208500Y23000D01*
X187600Y19100D02*
X204600D01*
X181000Y83000D02*
Y84600D01*
X125343Y67785D02*
X128926Y71369D01*
X124185Y67785D02*
X125343D01*
X124000Y67600D02*
X124185Y67785D01*
X163642Y63475D02*
Y66328D01*
X162470Y67500D02*
X163642Y66328D01*
X158938Y67500D02*
X162470D01*
X155600Y70837D02*
X158938Y67500D01*
X139163Y71369D02*
X139272Y71260D01*
X129538Y71369D02*
X139163D01*
X147294Y71211D02*
X147343Y71162D01*
X139321Y71211D02*
X147294D01*
X139272Y71260D02*
X139321Y71211D01*
X147343Y71162D02*
X151481Y75300D01*
X169148D01*
X175428D01*
X181000Y80872D02*
Y83000D01*
X175428Y75300D02*
X181000Y80872D01*
X163642Y70975D02*
X164823D01*
X169148Y75300D01*
X168700Y68900D02*
X170554Y70754D01*
X173737D01*
X168700Y64900D02*
Y68900D01*
X173737Y70754D02*
X173957Y70975D01*
X174178Y71195D01*
X168700Y64900D02*
X170200Y63400D01*
X174178Y71195D02*
X182514D01*
X182776Y71457D01*
X174970Y54470D02*
X175000Y54440D01*
D47*
X201000Y83000D02*
D03*
X191000D02*
D03*
X181000D02*
D03*
X171000D02*
D03*
X161000D02*
D03*
X151000D02*
D03*
X141000D02*
D03*
X131000D02*
D03*
X121000D02*
D03*
X111000D02*
D03*
X101000D02*
D03*
X81000D02*
D03*
X91000D02*
D03*
X71000D02*
D03*
X61000D02*
D03*
X51000D02*
D03*
X41000D02*
D03*
X30685D02*
D03*
X20843D02*
D03*
X22343Y8000D02*
D03*
X32185D02*
D03*
X42500D02*
D03*
X52500D02*
D03*
X62500D02*
D03*
X72500D02*
D03*
X92500D02*
D03*
X82500D02*
D03*
X102500D02*
D03*
X112500D02*
D03*
X122500D02*
D03*
X132500D02*
D03*
X142500D02*
D03*
X152500D02*
D03*
X162500D02*
D03*
X172500D02*
D03*
X182500D02*
D03*
X192500D02*
D03*
X202500D02*
D03*
D48*
X11000Y83000D02*
D03*
X12500Y8000D02*
D03*
D49*
X160138Y33465D02*
D03*
X170138D02*
D03*
Y23465D02*
D03*
X160138D02*
D03*
X150138Y33465D02*
D03*
Y23465D02*
D03*
D50*
X9055Y28130D02*
D03*
Y38130D02*
D03*
Y48130D02*
D03*
D51*
Y58130D02*
D03*
D52*
X136600Y32100D02*
D03*
X113681Y43110D02*
D03*
X78100Y55200D02*
D03*
X77500Y58800D02*
D03*
X78900Y62900D02*
D03*
X107868Y48026D02*
D03*
X95516Y67500D02*
D03*
X34500Y67000D02*
D03*
X96900Y48400D02*
D03*
X45600Y49100D02*
D03*
X34300Y40100D02*
D03*
X41700Y50200D02*
D03*
X197587Y37403D02*
D03*
X182000Y44500D02*
D03*
X155500Y22700D02*
D03*
X164800Y22000D02*
D03*
X57100Y6600D02*
D03*
X15700Y71000D02*
D03*
X124000Y67600D02*
D03*
X87000Y44100D02*
D03*
X89300Y25000D02*
D03*
X78248Y36417D02*
D03*
X140200Y57000D02*
D03*
X124000Y31200D02*
D03*
X138484Y53642D02*
D03*
X132703Y57210D02*
D03*
X112000Y48400D02*
D03*
X124902Y52658D02*
D03*
X127264Y46850D02*
D03*
X142028Y49016D02*
D03*
X121023Y55807D02*
D03*
X104626Y47736D02*
D03*
D53*
X205000Y75000D02*
D03*
Y35000D02*
D03*
Y15000D02*
D03*
X207500Y10000D02*
D03*
X200000Y75000D02*
D03*
Y65000D02*
D03*
X202500Y50000D02*
D03*
X200000Y45000D02*
D03*
Y15000D02*
D03*
X195000Y75000D02*
D03*
Y65000D02*
D03*
X197500Y50000D02*
D03*
X195000Y45000D02*
D03*
X197500Y40000D02*
D03*
X195000Y15000D02*
D03*
X197500Y10000D02*
D03*
X190000Y75000D02*
D03*
Y65000D02*
D03*
Y15000D02*
D03*
X185000Y55000D02*
D03*
Y45000D02*
D03*
Y35000D02*
D03*
Y15000D02*
D03*
X187500Y10000D02*
D03*
X180000Y55000D02*
D03*
X182500Y50000D02*
D03*
X180000Y35000D02*
D03*
X182500Y30000D02*
D03*
Y20000D02*
D03*
X175000Y35000D02*
D03*
X177500Y30000D02*
D03*
Y20000D02*
D03*
Y10000D02*
D03*
X170000Y45000D02*
D03*
Y15000D02*
D03*
X167500Y60000D02*
D03*
X165000Y45000D02*
D03*
Y35000D02*
D03*
X167500Y10000D02*
D03*
X162500Y60000D02*
D03*
X160000Y45000D02*
D03*
X157500Y50000D02*
D03*
X155000Y45000D02*
D03*
X152500Y50000D02*
D03*
X150000Y45000D02*
D03*
X145000Y35000D02*
D03*
X147500Y10000D02*
D03*
X137500Y50000D02*
D03*
Y40000D02*
D03*
Y10000D02*
D03*
X132500Y40000D02*
D03*
X117500Y10000D02*
D03*
X105000Y85000D02*
D03*
X107500Y10000D02*
D03*
X100000Y75000D02*
D03*
X95000Y85000D02*
D03*
X97500Y80000D02*
D03*
X95000Y75000D02*
D03*
Y45000D02*
D03*
X97500Y40000D02*
D03*
X95000Y35000D02*
D03*
X97500Y20000D02*
D03*
X95000Y15000D02*
D03*
X97500Y10000D02*
D03*
X92500Y40000D02*
D03*
X85000Y85000D02*
D03*
X87500Y80000D02*
D03*
Y10000D02*
D03*
X75000Y85000D02*
D03*
Y45000D02*
D03*
X77500Y40000D02*
D03*
X75000Y25000D02*
D03*
X70000Y65000D02*
D03*
X65000Y85000D02*
D03*
X67500Y80000D02*
D03*
Y50000D02*
D03*
X65000Y35000D02*
D03*
Y25000D02*
D03*
X67500Y10000D02*
D03*
X55000Y85000D02*
D03*
X57500Y80000D02*
D03*
Y40000D02*
D03*
Y30000D02*
D03*
X55000Y25000D02*
D03*
X57500Y10000D02*
D03*
X45000Y85000D02*
D03*
X47500Y80000D02*
D03*
X45000Y15000D02*
D03*
X40000Y55000D02*
D03*
X35000Y85000D02*
D03*
X37500Y80000D02*
D03*
Y60000D02*
D03*
Y50000D02*
D03*
Y30000D02*
D03*
X35000Y25000D02*
D03*
X37500Y10000D02*
D03*
X25000Y85000D02*
D03*
Y75000D02*
D03*
Y65000D02*
D03*
Y25000D02*
D03*
Y15000D02*
D03*
X27500Y10000D02*
D03*
X22500Y70000D02*
D03*
X20000Y65000D02*
D03*
X22500Y60000D02*
D03*
Y30000D02*
D03*
X20000Y25000D02*
D03*
X22500Y20000D02*
D03*
X20000Y15000D02*
D03*
X15000Y65000D02*
D03*
X17500Y60000D02*
D03*
Y50000D02*
D03*
X15000Y35000D02*
D03*
X17500Y30000D02*
D03*
X15000Y25000D02*
D03*
X17500Y20000D02*
D03*
X15000Y15000D02*
D03*
X17500Y10000D02*
D03*
X10000Y75000D02*
D03*
Y65000D02*
D03*
X12500Y20000D02*
D03*
X10000Y15000D02*
D03*
X5000Y85000D02*
D03*
Y75000D02*
D03*
Y65000D02*
D03*
X7500Y20000D02*
D03*
X5000Y15000D02*
D03*
X7500Y10000D02*
D03*
X5000Y5000D02*
D03*
D54*
X23229Y55315D02*
D03*
X23229Y47835D02*
D03*
X32973Y55315D02*
D03*
X32973Y47835D02*
D03*
X81000Y18560D02*
D03*
X81000Y26040D02*
D03*
X129429Y63997D02*
D03*
X129429Y71478D02*
D03*
X175000Y54440D02*
D03*
X175000Y46960D02*
D03*
X129844Y19056D02*
D03*
X129844Y26537D02*
D03*
D55*
X41732Y71358D02*
D03*
Y63484D02*
D03*
X64665Y71555D02*
D03*
Y63681D02*
D03*
X139272Y63386D02*
D03*
Y71260D02*
D03*
X147343Y63288D02*
D03*
Y71162D02*
D03*
X155600Y62963D02*
D03*
Y70837D02*
D03*
X182776Y63583D02*
D03*
Y71457D02*
D03*
X104600Y26500D02*
D03*
Y18626D02*
D03*
X112900Y26500D02*
D03*
Y18626D02*
D03*
X139400Y26537D02*
D03*
Y18663D02*
D03*
X121200Y26500D02*
D03*
Y18626D02*
D03*
D56*
X56989Y58070D02*
D03*
X49508Y58071D02*
D03*
D57*
X163642Y70975D02*
D03*
X173957Y63494D02*
D03*
Y70975D02*
D03*
Y67235D02*
D03*
X163642Y63475D02*
D03*
D58*
X166637Y54100D02*
D03*
X158763D02*
D03*
M02*
