G04*
G04 #@! TF.GenerationSoftware,Altium Limited,Altium Designer,20.0.13 (296)*
G04*
G04 Layer_Color=128*
%FSLAX25Y25*%
%MOIN*%
G70*
G01*
G75*
%ADD54R,0.05906X0.05118*%
%ADD55R,0.05000X0.05000*%
%ADD56R,0.05118X0.05906*%
%ADD57R,0.04803X0.02441*%
%ADD58R,0.05000X0.05000*%
D54*
X23229Y55315D02*
D03*
X23229Y47835D02*
D03*
X32973Y55315D02*
D03*
X32973Y47835D02*
D03*
X81000Y18560D02*
D03*
X81000Y26040D02*
D03*
X129429Y63997D02*
D03*
X129429Y71478D02*
D03*
X175000Y54440D02*
D03*
X175000Y46960D02*
D03*
X129844Y19056D02*
D03*
X129844Y26537D02*
D03*
D55*
X41732Y71358D02*
D03*
Y63484D02*
D03*
X64665Y71555D02*
D03*
Y63681D02*
D03*
X139272Y63386D02*
D03*
Y71260D02*
D03*
X147343Y63288D02*
D03*
Y71162D02*
D03*
X155600Y62963D02*
D03*
Y70837D02*
D03*
X182776Y63583D02*
D03*
Y71457D02*
D03*
X104600Y26500D02*
D03*
Y18626D02*
D03*
X112900Y26500D02*
D03*
Y18626D02*
D03*
X139400Y26537D02*
D03*
Y18663D02*
D03*
X121200Y26500D02*
D03*
Y18626D02*
D03*
D56*
X56989Y58070D02*
D03*
X49508Y58071D02*
D03*
D57*
X163642Y70975D02*
D03*
X173957Y63494D02*
D03*
Y70975D02*
D03*
Y67235D02*
D03*
X163642Y63475D02*
D03*
D58*
X166637Y54100D02*
D03*
X158763D02*
D03*
M02*
