M48
;Layer_Color=9474304
;FILE_FORMAT=2:5
INCH,LZ
;TYPE=PLATED
T1F00S00C0.01000
T2F00S00C0.03150
T3F00S00C0.03543
%
T01
X0005Y0005
X00075Y001
X001Y0015
X0015
X002
X0025
X00275Y001
X00375
X0045Y0015
X0055Y0025
X0035
X00375Y003
X00343Y00401
X00375Y005
X00417Y00502
X00456Y00491
X004Y0055
X00175Y005
X0015Y0035
X00175Y003
X00225
X0025Y0025
X002
X0015
X00175Y002
X00225
X00125
X00075
X0005Y0015
X00175Y001
X00575
X00571Y00066
X00675Y001
X0065Y0025
X0075
X00893
X00975Y002
X0095Y0015
X00975Y001
X01075
X01175
X01375
X01475
X01675
X017Y0015
X01648Y0022
X01555Y00227
X0165Y0035
X0175
X018
X0185
X01825Y003
X01775
Y002
X01825
X0185Y0015
X019
X0195
X02
X0205
X02075Y001
X01975
X01875
X01775
X0182Y00445
X0185Y0045
X01825Y005
X0185Y0055
X018
X017Y0045
X0165
X016
X0155
X015
X01525Y005
X01575
X0142028Y0049016
X01375Y005
X0138484Y0053642
X0124902Y0052658
X0121023Y0055807
X0127264Y004685
X01325Y004
X01375
X01366Y00321
X0145Y0035
X0124Y00312
X0113681Y004311
X0112Y00484
X0107868Y0048026
X0104626Y0047736
X00969Y00484
X0095Y0045
X00975Y004
X00925
X0095Y0035
X0087Y00441
X0075Y0045
X00775Y004
X0078248Y0036417
X0065Y0035
X00575Y004
Y003
X00675Y005
X00781Y00552
X00875Y001
X0197587Y0037403
X01975Y004
X02Y0045
X0195
X01975Y005
X02025
X0205Y0035
X02Y0065
X0195
X019
Y0075
X0195
X02
X0205
X01675Y006
X01625
X01402Y0057
X0132703Y005721
X0124Y00676
X0095516Y00675
X0095Y0075
X01
X00975Y008
X0095Y0085
X0105
X0085
X00875Y008
X0075Y0085
X0065
X00675Y008
X00575
X007Y0065
X00789Y00629
X00775Y00588
X00375Y006
X00345Y0067
X0025Y0065
X002
X0015
X001
X0005
Y0075
X001
X00157Y0071
X00225Y007
X0025Y0075
Y0085
X0035
X00375Y008
X00475
X0045Y0085
X0055
X0005
X00175Y006
X00225
T02
X00125Y0008
X0022343
X0032185
X00425
X00525
X0009055Y002813
Y003813
Y004813
X00625Y0008
X00725
X00825
X00925
X01025
X01125
X01225
X01325
X01425
X01525
X01625
X01725
X01825
X01925
X02025
X0201Y0083
X0191
X0181
X0171
X0161
X0151
X0141
X0131
X0121
X0111
X0101
X0091
X0081
X0071
X0061
X0051
X0041
X0030685
X0020843
X0011
X0009055Y005813
T03
X0150138Y0023465
X0160138
Y0033465
X0170138
Y0023465
X0150138Y0033465
M30
